<svg width="12" height="12" viewBox="0 0 12 12" fill="none" xmlns="http://www.w3.org/2000/svg">
<path d="M1.22698 3.96974C1.36762 3.82914 1.55835 3.75015 1.75723 3.75015C1.9561 3.75015 2.14683 3.82914 2.28748 3.96974L5.99998 7.68224L9.71247 3.96974C9.85393 3.83312 10.0434 3.75753 10.24 3.75924C10.4367 3.76095 10.6248 3.83982 10.7638 3.97888C10.9029 4.11793 10.9818 4.30604 10.9835 4.50269C10.9852 4.69934 10.9096 4.88879 10.773 5.03024L6.53022 9.27299C6.38958 9.4136 6.19885 9.49258 5.99998 9.49258C5.8011 9.49258 5.61037 9.4136 5.46973 9.27299L1.22698 5.03024C1.08637 4.8896 1.00739 4.69887 1.00739 4.49999C1.00739 4.30112 1.08637 4.11039 1.22698 3.96974Z" fill="white"/>
</svg>
