<svg width="104" height="108" viewBox="0 0 104 108" fill="none" xmlns="http://www.w3.org/2000/svg">
<path fill-rule="evenodd" clip-rule="evenodd" d="M40.5719 32.0857C39.7219 32.0289 38.8643 32 38 32C17.0132 32 0 49.0132 0 70C0 90.9868 17.0132 108 38 108C58.9868 108 76 90.9868 76 70C76 53.3012 65.2288 39.1181 50.2551 34.0195C49.4622 34.7883 48.4478 35.3475 47.2855 35.5856C44.4502 36.1662 41.6727 34.6434 40.5719 32.0857Z" fill="white" fill-opacity="0.4"/>
<path fill-rule="evenodd" clip-rule="evenodd" d="M66 76C86.9868 76 104 58.9868 104 38C104 17.0132 86.9868 0 66 0C45.0132 0 28 17.0132 28 38C28 58.9868 45.0132 76 66 76ZM47.2855 35.5856C50.5319 34.9207 52.6246 31.7501 51.9598 28.5038C51.295 25.2575 48.1243 23.1647 44.878 23.8296C41.6317 24.4944 39.5389 27.665 40.2038 30.9113C40.8686 34.1577 44.0392 36.2504 47.2855 35.5856ZM63.8694 16.878C64.5343 20.1243 62.4415 23.295 59.1952 23.9598C55.9489 24.6246 52.7783 22.5319 52.1134 19.2855C51.4486 16.0392 53.5413 12.8686 56.7877 12.2038C60.034 11.5389 63.2046 13.6317 63.8694 16.878ZM75.8729 25.6481C79.1193 24.9832 81.212 21.8126 80.5472 18.5663C79.8824 15.32 76.7117 13.2272 73.4654 13.8921C70.2191 14.5569 68.1264 17.7275 68.7912 20.9738C69.456 24.2202 72.6266 26.3129 75.8729 25.6481Z" fill="white"/>
</svg>
