<svg width="14" height="20" viewBox="0 0 14 20" fill="none" xmlns="http://www.w3.org/2000/svg">
<path d="M7.35596 17.3792C6.34556 17.3792 5.41171 17.2596 4.55441 17.0203C3.6971 16.7811 2.93165 16.4521 2.25805 16.0335C1.91482 15.8152 1.60072 15.5786 1.31575 15.3237C0.869557 14.9246 0.888973 14.2467 1.28049 13.7939C1.81763 13.1726 2.81412 13.2422 3.46709 13.7404C3.52952 13.788 3.59343 13.8346 3.65883 13.8802C4.19464 14.2391 4.79935 14.5232 5.47295 14.7326C6.14655 14.9269 6.83545 15.0241 7.53967 15.0241C8.47352 15.0241 9.20835 14.8746 9.74417 14.5756C10.28 14.2765 10.5479 13.8354 10.5479 13.2522C10.5479 12.8784 10.3948 12.5569 10.0886 12.2878C9.79775 12.0186 9.2849 11.8018 8.55006 11.6373L5.33517 10.9196C4.47786 10.7252 3.74303 10.4561 3.13067 10.1121C2.5183 9.76823 2.05138 9.34955 1.72989 8.85611C1.42371 8.34771 1.27062 7.76456 1.27062 7.10663C1.27062 6.23937 1.50791 5.4693 1.98249 4.79643C2.47238 4.12355 3.16128 3.58525 4.04921 3.18153C4.95244 2.7778 6.03938 2.57594 7.31003 2.57594C8.64192 2.57594 9.81306 2.80023 10.8235 3.24881C11.5197 3.55793 12.1433 3.97 12.6941 4.48503C13.131 4.89347 13.1052 5.57168 12.7081 6.01884C12.2029 6.58769 11.3149 6.5493 10.7184 6.07696C10.3938 5.8199 10.0538 5.60988 9.69824 5.44687C8.96341 5.08801 8.09845 4.90857 7.10336 4.90857C6.42976 4.90857 5.87864 4.99081 5.44998 5.15529C5.02133 5.30482 4.69984 5.51416 4.48552 5.78331C4.2865 6.05246 4.18699 6.35899 4.18699 6.70291C4.18699 6.97206 4.24823 7.21878 4.3707 7.44307C4.49317 7.65241 4.72281 7.83932 5.0596 8.0038C5.41171 8.16828 5.90926 8.32529 6.55224 8.47481L9.30786 9.0804C10.7469 9.39441 11.7803 9.85795 12.4079 10.471C13.0509 11.0691 13.3724 11.8691 13.3724 12.8709C13.3724 13.8279 13.1198 14.6428 12.6146 15.3157C12.1094 15.9886 11.3975 16.5045 10.479 16.8633C9.57577 17.2072 8.53476 17.3792 7.35596 17.3792ZM7.34448 19.4651C6.75475 19.4651 6.27667 18.987 6.27667 18.3973V1.60269C6.27667 1.01295 6.75475 0.534882 7.34448 0.534882C7.93421 0.534882 8.41228 1.01295 8.41228 1.60269V18.3973C8.41228 18.987 7.93421 19.4651 7.34448 19.4651Z" fill="white"/>
</svg>
