<svg width="25" height="24" viewBox="0 0 25 24" fill="none" xmlns="http://www.w3.org/2000/svg">
<path fill-rule="evenodd" clip-rule="evenodd" d="M19.0301 9.66785H5.75775L6.47263 19.6778C6.5077 20.1705 6.72815 20.6315 7.08959 20.9682C7.45103 21.3048 7.92661 21.4919 8.42052 21.4919H16.3674C16.8613 21.4919 17.3368 21.3048 17.6983 20.9682C18.0597 20.6315 18.2802 20.1705 18.3152 19.6778L19.0301 9.66785Z" fill="white"/>
<path opacity="0.4" d="M6.40162 2.22851C6.10396 2.40135 5.85727 2.6498 5.68654 2.94868L4.56858 4.90146C3.93956 6.00393 4.51671 7.33388 5.61856 7.71541H19.1682C20.271 7.33388 20.8481 6.00393 20.2181 4.90146L19.1021 2.94868C18.9314 2.6498 18.6847 2.40135 18.387 2.22851C18.0894 2.05568 17.7513 1.96459 17.4071 1.96448H7.38155C7.03735 1.96459 6.69929 2.05568 6.40162 2.22851Z" fill="white"/>
</svg>
