<svg width="104" height="104" viewBox="0 0 104 104" fill="none" xmlns="http://www.w3.org/2000/svg">
<path fill-rule="evenodd" clip-rule="evenodd" d="M81.4498 42.8567H22.5454L25.7181 87.282C25.8738 89.4685 26.8522 91.5149 28.4563 93.0088C30.0604 94.5028 32.1711 95.3334 34.3631 95.3333H69.6321C71.8242 95.3334 73.9348 94.5028 75.539 93.0088C77.1431 91.5149 78.1215 89.4685 78.2771 87.282L81.4498 42.8567Z" fill="white"/>
<path opacity="0.4" d="M25.4035 9.8385C24.0824 10.6056 22.9876 11.7082 22.2299 13.0347L17.2682 21.7013C14.4766 26.5942 17.038 32.4967 21.9281 34.19H82.063C86.9574 32.4967 89.5188 26.5942 86.7229 21.7013L81.7699 13.0347C81.0122 11.7082 79.9173 10.6056 78.5963 9.8385C77.2752 9.07143 75.7748 8.66716 74.2472 8.66667H29.7525C28.2249 8.66716 26.7246 9.07143 25.4035 9.8385Z" fill="white"/>
</svg>
