<svg width="22" height="22" viewBox="0 0 22 22" fill="none" xmlns="http://www.w3.org/2000/svg">
<path fill-rule="evenodd" clip-rule="evenodd" d="M2.07977 17.8577C1.62851 17.4065 1.375 16.7944 1.375 16.1562V8.85156H20.625V16.1562C20.625 16.7944 20.3715 17.4065 19.9202 17.8577C19.469 18.309 18.8569 18.5625 18.2188 18.5625H3.78125C3.14307 18.5625 2.53103 18.309 2.07977 17.8577ZM3.78125 3.4375H18.2188C18.8569 3.4375 19.469 3.69102 19.9202 4.14227C20.3715 4.59353 20.625 5.20557 20.625 5.84375V7.30469H1.375V5.84375C1.375 5.20557 1.62851 4.59353 2.07977 4.14227C2.53103 3.69102 3.14307 3.4375 3.78125 3.4375ZM5.5 14.4375C6.25939 14.4375 6.875 13.8219 6.875 13.0625C6.875 12.3031 6.25939 11.6875 5.5 11.6875C4.74061 11.6875 4.125 12.3031 4.125 13.0625C4.125 13.8219 4.74061 14.4375 5.5 14.4375Z" fill="white"/>
</svg>
