<svg width="22" height="22" viewBox="0 0 22 22" fill="none" xmlns="http://www.w3.org/2000/svg">
<path d="M6.41667 2.75H3.66667C3.16041 2.75 2.75 3.16041 2.75 3.66667V6.41667C2.75 6.92293 3.16041 7.33333 3.66667 7.33333H6.41667C6.92293 7.33333 7.33333 6.92293 7.33333 6.41667V3.66667C7.33333 3.16041 6.92293 2.75 6.41667 2.75Z" stroke="white" stroke-width="1.8" stroke-linecap="round" stroke-linejoin="round"/>
<path d="M18.3337 2.75H15.5837C15.0774 2.75 14.667 3.16041 14.667 3.66667V6.41667C14.667 6.92293 15.0774 7.33333 15.5837 7.33333H18.3337C18.8399 7.33333 19.2503 6.92293 19.2503 6.41667V3.66667C19.2503 3.16041 18.8399 2.75 18.3337 2.75Z" stroke="white" stroke-width="1.8" stroke-linecap="round" stroke-linejoin="round"/>
<path d="M6.41667 14.6667H3.66667C3.16041 14.6667 2.75 15.0771 2.75 15.5833V18.3333C2.75 18.8396 3.16041 19.25 3.66667 19.25H6.41667C6.92293 19.25 7.33333 18.8396 7.33333 18.3333V15.5833C7.33333 15.0771 6.92293 14.6667 6.41667 14.6667Z" stroke="white" stroke-width="1.8" stroke-linecap="round" stroke-linejoin="round"/>
<path d="M19.25 14.6667H16.5C16.0138 14.6667 15.5475 14.8598 15.2036 15.2036C14.8598 15.5475 14.6667 16.0138 14.6667 16.5V19.25M19.25 19.25V19.2592M11 6.41667V9.16667C11 9.6529 10.8068 10.1192 10.463 10.463C10.1192 10.8068 9.6529 11 9.16667 11H6.41667M2.75 11H2.75917M11 2.75H11.0092M11 14.6667V14.6758M14.6667 11H15.5833M19.25 11V11.0092M11 19.25V18.3333" stroke="white" stroke-width="1.8" stroke-linecap="round" stroke-linejoin="round"/>
</svg>
