<svg width="20" height="20" viewBox="0 0 20 20" fill="none" xmlns="http://www.w3.org/2000/svg">
<path d="M2.91016 13.7217C3.6857 15.2897 4.9435 16.5677 6.49891 17.3682C8.04316 18.1611 9.80384 18.4288 11.514 18.1308C13.2294 17.8292 14.8011 16.9802 15.9937 15.7108C17.1974 14.4295 17.9638 12.7995 18.1827 11.0551C18.405 9.30677 18.0701 7.53288 17.2257 5.98593C16.3893 4.45099 15.0822 3.22514 13.4967 2.48884C11.9216 1.75933 10.1515 1.56365 8.45507 1.93151C6.75924 2.29909 5.36866 3.13509 4.22007 4.45693C3.77171 4.94529 3.39515 5.495 3.10174 6.08951" stroke="white" stroke-width="1.8" stroke-linecap="round" stroke-linejoin="round"/>
<path d="M7.18675 6.16192L2.56675 6.99333L1.75 2.29083" stroke="white" stroke-width="1.8" stroke-linecap="round" stroke-linejoin="round"/>
</svg>
