<svg width="104" height="104" viewBox="0 0 104 104" fill="none" xmlns="http://www.w3.org/2000/svg">
<rect x="5" y="43.785" width="60" height="60" rx="9" transform="rotate(-21.2896 5 43.785)" fill="white" fill-opacity="0.4"/>
<path d="M47 77L56.6668 67.1111M32.0002 72.3333L46.4446 57.8889M27.5557 57.3333L37.6668 47.2222M86.2089 80.431L84.2358 78.4579L25.5437 19.7658L23.5677 17.7898C22.9777 17.4932 22.3272 17.337 21.6668 17.3333C20.5176 17.3333 19.4154 17.7899 18.6027 18.6025C17.79 19.4152 17.3335 20.5174 17.3335 21.6667V83.7778C17.3335 84.544 17.6379 85.2788 18.1796 85.8205C18.7214 86.3623 19.4562 86.6667 20.2224 86.6667H82.3335C83.4828 86.6667 84.585 86.2101 85.3976 85.3975C86.2103 84.5848 86.6668 83.4826 86.6668 82.3333C86.6668 81.6472 86.4935 81.0073 86.2089 80.431Z" stroke="white" stroke-width="7.5" stroke-miterlimit="10" stroke-linecap="round" stroke-linejoin="round"/>
</svg>
