<svg width="24" height="24" viewBox="0 0 24 24" fill="none" xmlns="http://www.w3.org/2000/svg">
<path d="M20.4 14V12.6C20.3999 12.4855 20.371 12.3728 20.316 12.2724C20.2678 12.1925 20.1956 12.1299 20.1096 12.0936C20.0196 12.0557 19.9246 12.0307 19.8276 12.0192C19.7253 12.0064 19.6223 12 19.5192 12H19.2V6.1404C19.2372 6.0588 19.2912 5.9628 19.3596 5.85C19.428 5.7372 19.494 5.6124 19.5564 5.4756C19.6188 5.3376 19.6752 5.2092 19.7244 5.0916C19.768 5.00013 19.7937 4.90114 19.8 4.8C19.7823 4.66997 19.7542 4.54156 19.716 4.416C19.6601 4.21667 19.5972 4.01935 19.5276 3.8244C19.4568 3.62398 19.3848 3.42398 19.3116 3.2244C19.2607 3.08875 19.2143 2.95148 19.1724 2.8128C19.1266 2.69372 19.0485 2.58981 18.9468 2.5128C18.8469 2.43775 18.7249 2.39807 18.6 2.4H16.2C16.0718 2.4053 15.948 2.44783 15.8436 2.5224C15.741 2.59218 15.6649 2.69448 15.6276 2.8128C15.5799 2.95402 15.5299 3.09443 15.4776 3.234C15.4054 3.43267 15.3369 3.6327 15.2724 3.834C15.2028 4.0464 15.1404 4.2432 15.084 4.4256C15.0276 4.6056 15 4.7316 15 4.8C15 4.8876 15.024 4.9872 15.0756 5.1C15.1248 5.2128 15.1836 5.3376 15.2532 5.4756C15.3648 5.69927 15.4804 5.92091 15.6 6.1404V12H15.2808C15.1745 11.9995 15.0683 12.0059 14.9628 12.0192C14.8647 12.0309 14.7693 12.0593 14.6808 12.1032C14.598 12.1433 14.5272 12.2046 14.4756 12.2808C14.4198 12.3775 14.3935 12.4885 14.4 12.6V14H20.4ZM6.936 2.5512C7.01742 2.60624 7.08408 2.68044 7.13011 2.76727C7.17615 2.85411 7.20014 2.95092 7.2 3.0492V7.1976C7.2 7.51586 7.32643 7.82108 7.55147 8.04613C7.77651 8.27117 8.08174 8.3976 8.4 8.3976C8.71826 8.3976 9.02348 8.27117 9.24852 8.04613C9.47357 7.82108 9.6 7.51586 9.6 7.1976V3.0492C9.60006 2.95093 9.62426 2.85417 9.67046 2.76744C9.71667 2.68071 9.78348 2.60666 9.86501 2.55179C9.94654 2.49693 10.0403 2.46293 10.138 2.45278C10.2358 2.44263 10.3345 2.45665 10.4256 2.4936C11.3903 2.88409 12.2216 3.54498 12.8196 4.39676C13.4176 5.24854 13.7568 6.25495 13.7963 7.29493C13.8359 8.33491 13.5741 9.36417 13.0426 10.2589C12.511 11.1537 11.7322 11.8758 10.8 12.3384V19.1976C10.8 19.8341 10.5471 20.4446 10.0971 20.8947C9.64697 21.3447 9.03652 21.5976 8.4 21.5976C7.76348 21.5976 7.15303 21.3447 6.70294 20.8947C6.25285 20.4446 6 19.8341 6 19.1976V12.3384C5.06732 11.8761 4.28813 11.1541 3.75623 10.2593C3.22433 9.36453 2.96239 8.33507 3.00195 7.29486C3.04151 6.25466 3.38088 5.24806 3.9792 4.39624C4.57753 3.54443 5.4093 2.8837 6.3744 2.4936C6.46538 2.4566 6.56407 2.4425 6.66178 2.45254C6.75949 2.46258 6.85324 2.49646 6.9348 2.5512H6.936Z" fill="white"/>
<path opacity="0.4" d="M14.4 15.6H20.4V18.666C20.4026 19.0603 20.3194 19.4505 20.1564 19.8096C20 20.1585 19.7771 20.4736 19.5 20.7372C19.2214 21.0023 18.8975 21.2153 18.5436 21.366C18.1812 21.522 17.7996 21.6 17.4 21.6C16.6152 21.6023 15.8609 21.2959 15.3 20.7468C15.0252 20.478 14.8068 20.166 14.6436 19.8096C14.4816 19.4532 14.4 19.0716 14.4 18.666V15.6Z" fill="white"/>
</svg>
