<svg width="104" height="104" viewBox="0 0 104 104" fill="none" xmlns="http://www.w3.org/2000/svg">
<path d="M77.5 21L53 24V91L59 92.5L79 87L88.5 75.5L92 54L90 31L77.5 21Z" fill="white" fill-opacity="0.4"/>
<path d="M52.6368 92.1483L51.9998 92.0183L51.3628 92.1483C41.0625 94.2067 31.3428 93.0583 24.2362 87.3817C17.1772 81.7267 11.9165 70.9497 11.9165 52C11.9165 32.617 16.2845 24.7433 22.0348 21.866C25.0465 20.3623 28.9378 19.9247 33.8865 20.4923C38.8308 21.0643 44.5378 22.607 50.9728 24.752L52.0995 25.1247L53.2045 24.6827C63.9598 20.384 73.6275 18.733 80.4178 21.905C86.7878 24.8733 92.0832 32.903 92.0832 52C92.0832 70.954 86.8268 81.7267 79.7635 87.3773C72.6568 93.0627 62.9372 94.2067 52.6368 92.144V92.1483Z" stroke="white" stroke-width="7.5"/>
<path d="M52 23.8333C52 13 47.6667 8.66667 39 8.66667" stroke="white" stroke-width="7.5" stroke-linecap="round" stroke-linejoin="round"/>
<path d="M52 26V91" stroke="white" stroke-width="7.5"/>
<path d="M39 52V60.6667" stroke="white" stroke-width="7.5" stroke-linecap="round" stroke-linejoin="round"/>
</svg>
