<svg width="104" height="104" viewBox="0 0 104 104" fill="none" xmlns="http://www.w3.org/2000/svg">
<path d="M52 13C13 13 13 39 13 39H91C91 39 91 13 52 13ZM13 78C13 85.1933 18.8067 91 26 91H78C85.1933 91 91 85.1933 91 78V73.6667H13V78Z" fill="white"/>
<path opacity="0.4" d="M86.6665 65C91.4765 65 95.3332 61.1433 95.3332 56.3333C95.3332 54.0348 94.4201 51.8304 92.7948 50.2051C91.1694 48.5798 88.965 47.6667 86.6665 47.6667H77.9998L67.1665 56.3333L56.3332 47.6667H17.3332C15.0346 47.6667 12.8302 48.5798 11.2049 50.2051C9.5796 51.8304 8.6665 54.0348 8.6665 56.3333C8.6665 58.6319 9.5796 60.8363 11.2049 62.4616C12.8302 64.0869 15.0346 65 17.3332 65H86.6665Z" fill="white"/>
</svg>
