<svg width="95" height="95" viewBox="0 0 95 95" fill="none" xmlns="http://www.w3.org/2000/svg">
<g clip-path="url(#clip0_17_2180)">
<path d="M55.3302 29.0567C45.5519 24.2881 34.0851 27.1084 27.461 35.1426L37.7032 45.3848C38.8722 46.5537 38.8722 48.4277 37.7032 49.5781C37.128 50.1533 36.3673 50.4502 35.6065 50.4502C34.8458 50.4502 34.0851 50.1533 33.5099 49.5781L24.1954 40.2637L0.426874 89.0069C-0.111212 90.1201 -0.148322 91.4746 0.426874 92.6621C1.42883 94.7217 3.93371 95.5752 5.99328 94.5733L30.7823 82.4756L21.6534 73.3467C20.4845 72.1963 20.4845 70.3037 21.6534 69.1533C22.8224 68.0029 24.6964 68.0029 25.8468 69.1533L36.423 79.7295L55.3487 70.4893C59.8018 68.3184 63.6056 64.6817 65.9435 59.8945C71.5284 48.4463 66.7784 34.6416 55.3302 29.0567Z" fill="white"/>
<path opacity="0.4" d="M66.7967 0C74.1629 6.10449 76.0369 15.0293 72.4187 22.581C79.9705 18.9629 88.8953 20.8369 94.9998 28.2031C87.281 37.5361 75.0535 37.9443 66.8152 29.6689L65.3308 28.1846C57.0554 19.9463 57.4637 7.7373 66.7967 0Z" fill="white"/>
</g>
<defs>
<clipPath id="clip0_17_2180">
<rect width="95" height="95" fill="white"/>
</clipPath>
</defs>
</svg>
