<svg width="25" height="24" viewBox="0 0 25 24" fill="none" xmlns="http://www.w3.org/2000/svg">
<path d="M12.3945 3.45142C3.60699 3.45142 3.60699 9.30975 3.60699 9.30975H21.182C21.182 9.30975 21.182 3.45142 12.3945 3.45142ZM3.60699 18.0972C3.60699 19.7181 4.91536 21.0264 6.53616 21.0264H18.2528C19.8736 21.0264 21.182 19.7181 21.182 18.0972V17.1209H3.60699V18.0972Z" fill="white"/>
<path opacity="0.4" d="M20.2056 15.168C21.2894 15.168 22.1584 14.299 22.1584 13.2152C22.1584 12.6973 21.9527 12.2006 21.5864 11.8344C21.2202 11.4682 20.7235 11.2625 20.2056 11.2625H18.2528L15.8119 13.2152L13.3709 11.2625H4.58339C4.06548 11.2625 3.56879 11.4682 3.20257 11.8344C2.83635 12.2006 2.63062 12.6973 2.63062 13.2152C2.63062 13.7331 2.83635 14.2298 3.20257 14.5961C3.56879 14.9623 4.06548 15.168 4.58339 15.168H20.2056Z" fill="white"/>
</svg>
