<svg width="25" height="24" viewBox="0 0 25 24" fill="none" xmlns="http://www.w3.org/2000/svg">
<path fill-rule="evenodd" clip-rule="evenodd" d="M3.60688 9.93927V20.6795C3.06764 20.6795 2.63049 21.1167 2.63049 21.6559C2.63049 22.1952 3.06764 22.6323 3.60688 22.6323H15.3235C15.8628 22.6323 16.2999 22.1952 16.2999 21.6559C16.2999 21.1167 15.8628 20.6795 15.3235 20.6795V13.8448H16.2999C16.5589 13.8448 16.8072 13.9477 16.9903 14.1308C17.1735 14.3139 17.2763 14.5623 17.2763 14.8212V16.774C17.2763 17.5509 17.5849 18.2959 18.1343 18.8452C18.6836 19.3945 19.4286 19.7032 20.2055 19.7032C20.9824 19.7032 21.7274 19.3945 22.2767 18.8452C22.8261 18.2959 23.1347 17.5509 23.1347 16.774V9.77405C23.135 9.38753 23.0588 9.00477 22.9105 8.64784C22.7624 8.29143 22.5453 7.9678 22.2718 7.69556L22.2706 7.69435L18.9431 4.36691C18.5618 3.98561 17.9436 3.98561 17.5623 4.36691C17.181 4.74821 17.181 5.36643 17.5623 5.74773L20.8918 9.07722L20.8938 9.07927C20.9852 9.1701 21.0577 9.27812 21.1072 9.3971C21.1566 9.51608 21.182 9.64444 21.1819 9.77328V16.774C21.1819 17.0329 21.079 17.2813 20.8959 17.4644C20.7128 17.6475 20.4644 17.7504 20.2055 17.7504C19.9465 17.7504 19.6982 17.6475 19.5151 17.4644C19.332 17.2813 19.2291 17.0329 19.2291 16.774V14.8212C19.2291 14.0443 18.9205 13.2993 18.3712 12.75C17.8218 12.2007 17.0768 11.892 16.2999 11.892H15.3235V9.93927H3.60688Z" fill="#EDB055"/>
<path opacity="0.4" d="M4.46481 2.00967C5.01413 1.46034 5.75918 1.15173 6.53604 1.15173H12.3944C13.1712 1.15173 13.9163 1.46034 14.4656 2.00967C15.0149 2.55899 15.3235 3.30404 15.3235 4.0809V7.98646H3.60687V4.0809C3.60687 3.30404 3.91548 2.55899 4.46481 2.00967Z" fill="#EDB055"/>
</svg>
