<svg width="36" height="36" viewBox="0 0 36 36" fill="none" xmlns="http://www.w3.org/2000/svg">
<path fill-rule="evenodd" clip-rule="evenodd" d="M4.5 15V31.5C3.67157 31.5 3 32.1716 3 33C3 33.8284 3.67157 34.5 4.5 34.5H22.5C23.3284 34.5 24 33.8284 24 33C24 32.1716 23.3284 31.5 22.5 31.5V21H24C24.3978 21 24.7794 21.158 25.0607 21.4393C25.342 21.7206 25.5 22.1022 25.5 22.5V25.5C25.5 26.6935 25.9741 27.8381 26.818 28.682C27.6619 29.5259 28.8065 30 30 30C31.1935 30 32.3381 29.5259 33.182 28.682C34.0259 27.8381 34.5 26.6935 34.5 25.5V14.7462C34.5005 14.1524 34.3834 13.5644 34.1556 13.016C33.9281 12.4685 33.5946 11.9713 33.1744 11.553L33.1725 11.5512L28.0607 6.43934C27.4749 5.85355 26.5251 5.85355 25.9393 6.43934C25.3536 7.02513 25.3536 7.97487 25.9393 8.56066L31.0543 13.6757L31.0575 13.6788C31.1979 13.8184 31.3092 13.9843 31.3852 14.1671C31.4611 14.3499 31.5002 14.5471 31.5 14.745V25.5C31.5 25.8978 31.342 26.2794 31.0607 26.5607C30.7794 26.842 30.3978 27 30 27C29.6022 27 29.2206 26.842 28.9393 26.5607C28.658 26.2794 28.5 25.8978 28.5 25.5V22.5C28.5 21.3065 28.0259 20.1619 27.182 19.318C26.3381 18.4741 25.1935 18 24 18H22.5V15H4.5Z" fill="#60BC94"/>
<path opacity="0.4" d="M5.81802 2.81802C6.66193 1.97411 7.80653 1.5 9 1.5H18C19.1935 1.5 20.3381 1.97411 21.182 2.81802C22.0259 3.66193 22.5 4.80652 22.5 6V12H4.5V6C4.5 4.80653 4.97411 3.66193 5.81802 2.81802Z" fill="#60BC94"/>
</svg>
