<svg width="24" height="24" viewBox="0 0 24 24" fill="none" xmlns="http://www.w3.org/2000/svg">
<path d="M11.375 4.25C12.5583 4.25 13.6083 4.425 14.525 4.775C15.4417 5.125 16.1583 5.64167 16.675 6.325C17.1917 6.99167 17.45 7.81667 17.45 8.8C17.45 9.8 17.2333 10.625 16.8 11.275C16.3833 11.9083 15.8167 12.3917 15.1 12.725C14.3833 13.0417 13.5917 13.25 12.725 13.35L12.6613 14.2049C12.5986 15.048 11.8962 15.7 11.0508 15.7C10.1546 15.7 9.42983 14.9704 9.43577 14.0743L9.44435 12.7782C9.44758 12.2906 9.81378 11.8849 10.2953 11.8086C11.014 11.6947 11.5989 11.5585 12.05 11.4C12.6833 11.1667 13.125 10.875 13.375 10.525C13.6417 10.175 13.775 9.75833 13.775 9.275C13.775 8.80833 13.675 8.41667 13.475 8.1C13.2917 7.78333 13.0083 7.54167 12.625 7.375C12.2417 7.20833 11.75 7.125 11.15 7.125C10.2833 7.125 9.59167 7.375 9.075 7.875C9.01176 7.93416 8.95152 7.99644 8.89427 8.06184C8.20021 8.85477 7.17737 9.58553 6.19383 9.20724C5.43737 8.9163 4.98563 8.09673 5.35013 7.37286C5.52387 7.02784 5.73216 6.70355 5.975 6.4C6.50833 5.71667 7.21667 5.19167 8.1 4.825C9 4.44167 10.0917 4.25 11.375 4.25Z" fill="white"/>
<path d="M12.575 17.9C12.1917 17.55 11.675 17.375 11.025 17.375C10.375 17.375 9.85836 17.55 9.47502 17.9C9.09169 18.25 8.90002 18.7167 8.90002 19.3C8.90002 19.9 9.09169 20.375 9.47502 20.725C9.85836 21.0583 10.375 21.225 11.025 21.225C11.675 21.225 12.1917 21.0583 12.575 20.725C12.9584 20.375 13.15 19.9 13.15 19.3C13.15 18.7167 12.9584 18.25 12.575 17.9Z" fill="white"/>
</svg>
