<svg width="104" height="104" viewBox="0 0 104 104" fill="none" xmlns="http://www.w3.org/2000/svg">
<path d="M90.9999 25.0033C90.3499 24.4833 89.7866 24.05 89.2233 23.6167L89.3533 23.4433C92.7333 20.0633 92.7333 14.6033 89.3533 11.2233C85.9733 7.84333 80.5133 7.84333 77.0899 11.2233L73.8833 14.43C70.9857 12.2355 67.3904 11.1666 63.7646 11.4216C60.1387 11.6766 56.7285 13.2382 54.1666 15.8167L15.8166 54.1667C13.2381 56.7286 11.6765 60.1388 11.4215 63.7647C11.1665 67.3905 12.2354 70.9857 14.4299 73.8833L11.2233 77.09C7.79993 80.5133 7.79993 85.9733 11.2233 89.3533C14.6033 92.7333 20.0633 92.7333 23.4433 89.3533L23.6166 89.2233C24.0499 89.7867 24.4833 90.35 25.0033 91C30.8966 96.8067 40.5166 96.8067 46.4533 91L90.8699 46.4533C93.7088 43.6139 95.3144 39.7701 95.3387 35.755C95.3631 31.7399 93.8042 27.877 90.9999 25.0033ZM20.6699 67.6433C20.0862 66.4301 19.8936 65.0656 20.1187 63.7383C20.3438 62.4109 20.9755 61.1862 21.9266 60.2333L60.2333 21.9267C61.1862 20.9756 62.4109 20.3439 63.7382 20.1188C65.0656 19.8937 66.4301 20.0863 67.6433 20.67L20.6699 67.6433ZM84.7599 40.3L40.2999 84.76C37.7866 87.3167 33.6699 87.3167 31.1133 84.76C28.5999 82.3333 28.5999 78 31.1133 75.5733L75.5733 31.1133C77.9999 28.6 82.3333 28.6 84.7599 31.1133C87.3166 33.67 87.3166 37.7867 84.7599 40.3Z" fill="white"/>
</svg>
