<svg width="18" height="18" viewBox="0 0 18 18" fill="none" xmlns="http://www.w3.org/2000/svg">
<path fill-rule="evenodd" clip-rule="evenodd" d="M8.99999 0.928932C9.55228 0.928932 9.99999 1.37665 9.99999 1.92893V16.0711C9.99999 16.6234 9.55228 17.0711 8.99999 17.0711C8.44771 17.0711 7.99999 16.6234 7.99999 16.0711V1.92893C7.99999 1.37665 8.44771 0.928932 8.99999 0.928932Z" fill="white"/>
<path fill-rule="evenodd" clip-rule="evenodd" d="M0.928925 9C0.928925 8.44772 1.37664 8 1.92892 8L16.0711 8C16.6233 8 17.0711 8.44772 17.0711 9C17.0711 9.55228 16.6233 10 16.0711 10L1.92892 10C1.37664 10 0.928925 9.55229 0.928925 9Z" fill="white"/>
</svg>
